<svg width="21" height="21" viewBox="0 0 21 21" fill="none" xmlns="http://www.w3.org/2000/svg">
<path d="M1.92963 2.5307L3.36141 1.16117C3.74803 0.791359 4.35723 0.791359 4.74385 1.16117L8.13925 4.40894C8.55095 4.80274 8.55095 5.46042 8.13925 5.85422L5.88279 8.01257C5.51578 8.36363 5.4251 8.91507 5.66038 9.36516C6.97412 11.8784 9.06703 13.8982 11.6254 15.1218L11.7863 15.1987C12.2317 15.4117 12.7623 15.3269 13.1191 14.9856L15.4667 12.7401C15.8533 12.3703 16.4625 12.3703 16.8491 12.7401L20.2445 15.9879C20.6562 16.3817 20.6562 17.0394 20.2445 17.4332L18.5459 19.0579C16.4594 21.0537 13.2472 21.2803 10.9011 19.5973L7.9304 17.4661C6.1612 16.1969 4.58119 14.6829 3.23769 12.9694L1.35533 10.5687C-0.548732 8.14037 -0.300335 4.66371 1.92963 2.5307Z" fill="white"/>
</svg>
