<svg width="25" height="19" viewBox="0 0 25 19" fill="none" xmlns="http://www.w3.org/2000/svg">
<path fill-rule="evenodd" clip-rule="evenodd" d="M15.1435 2.87638C12.9045 3.73044 8.42949 5.49813 1.71862 8.17945C0.628879 8.57686 0.0580243 8.96565 0.00605647 9.3458C-0.0817695 9.98827 0.795542 10.2413 1.99021 10.5858C2.15272 10.6326 2.3211 10.6812 2.49372 10.7326C3.66909 11.083 5.25018 11.4929 6.07212 11.5092C6.8177 11.524 7.64986 11.2421 8.56858 10.6635C14.8388 6.78204 18.0754 4.82015 18.2787 4.77785C18.422 4.74801 18.6207 4.71049 18.7553 4.82021C18.8899 4.92992 18.8767 5.1377 18.8624 5.19345C18.7755 5.53322 15.3317 8.46932 13.5496 9.98875C12.994 10.4624 12.5999 10.7984 12.5193 10.8752C12.3388 11.0471 12.1549 11.2097 11.9781 11.3659C10.8862 12.3313 10.0673 13.0552 12.0235 14.2374C12.9635 14.8055 13.7158 15.2752 14.4662 15.7439C15.2858 16.2557 16.1032 16.7662 17.1608 17.402C17.4303 17.564 17.6876 17.7323 17.9383 17.8961C18.8921 18.5197 19.749 19.0799 20.8076 18.9906C21.4227 18.9387 22.0581 18.4082 22.3808 16.8262C23.1434 13.0874 24.6424 4.98665 24.9889 1.64851C25.0192 1.35604 24.9811 0.981745 24.9504 0.817438C24.9197 0.65313 24.8556 0.419028 24.6228 0.245728C24.347 0.0404891 23.9212 -0.00279151 23.7307 0.000135591C22.8649 0.0142723 21.5365 0.437867 15.1435 2.87638Z" fill="white"/>
</svg>
