<svg width="21" height="21" viewBox="0 0 21 21" fill="none" xmlns="http://www.w3.org/2000/svg">
<path fill-rule="evenodd" clip-rule="evenodd" d="M10.5 0C13.4114 0 14.8673 0.00016881 16.0388 0.405569C18.1756 1.14512 19.8549 2.82444 20.5944 4.96122C20.9999 6.13273 21 7.5885 21 10.5V16.0852C21 18.4019 20.9998 19.5603 20.2801 20.2801C19.5603 20.9997 18.4019 21 16.0852 21H10.5C7.58856 21 6.13272 20.9999 4.96122 20.5944C2.82447 19.8549 1.14511 18.1755 0.405569 16.0388C0.000130483 14.8673 0 13.4115 0 10.5C0 7.58858 0.000156165 6.13271 0.405569 4.96122C1.14511 2.82447 2.82448 1.14513 4.96122 0.405569C6.13272 0.000110001 7.58856 1.27791e-10 10.5 0ZM10.5008 13.1806C10.0485 13.1806 9.68177 13.5474 9.68166 13.9997C9.68166 14.4521 10.0484 14.8189 10.5008 14.8189H14.0005L14.0845 14.8149C14.4973 14.7726 14.8197 14.4236 14.8197 13.9997C14.8196 13.5759 14.4972 13.2268 14.0845 13.1846L14.0005 13.1806H10.5008ZM7.00027 8.51375C6.54818 8.51394 6.18137 8.88081 6.18113 9.33289C6.18113 9.78517 6.54803 10.1518 7.00027 10.152H14.0005L14.0837 10.148C14.4967 10.106 14.8197 9.75695 14.8197 9.33289C14.8194 8.90902 14.4966 8.55976 14.0837 8.51775L14.0005 8.51375H7.00027Z" fill="white"/>
</svg>
