<svg width="30" height="30" viewBox="0 0 30 30" fill="none" xmlns="http://www.w3.org/2000/svg">
<path d="M26.2461 11.1455C26.2485 11.4877 26.25 11.8551 26.25 12.25V17.75C26.25 20.5784 26.2498 21.9924 25.3711 22.8711C24.4924 23.7498 23.0784 23.75 20.25 23.75H9.75C6.92157 23.75 5.50759 23.7498 4.62891 22.8711C3.75023 21.9924 3.75 20.5784 3.75 17.75V12.25C3.75 11.8551 3.75151 11.4877 3.75391 11.1455L14.0283 16.8545L14.1436 16.9131C14.7242 17.1884 15.4054 17.1691 15.9717 16.8545L26.2461 11.1455ZM20.25 6.25C23.0784 6.25 24.4924 6.25023 25.3711 7.12891C25.8187 7.57655 26.0378 8.16307 26.1455 9.00488C26.0155 9.01848 25.8861 9.05851 25.7646 9.12598L15 15.1064L4.23535 9.12598L4.14355 9.08105C4.04961 9.04069 3.95219 9.0161 3.85449 9.00586C3.96217 8.16353 4.18109 7.57672 4.62891 7.12891C5.50759 6.25023 6.92157 6.25 9.75 6.25H20.25Z" fill="black"/>
</svg>
