<svg width="46" height="48" viewBox="0 0 46 48" fill="none" xmlns="http://www.w3.org/2000/svg">
<path fill-rule="evenodd" clip-rule="evenodd" d="M46 6.52867V41.4713C46 45.0745 43.1964 48 39.7434 48H6.25717C2.80355 48 0 45.0745 0 41.4713V6.52867C0 2.92549 2.80355 0 6.25717 0H39.7434C43.1964 0 46 2.92549 46 6.52867ZM42.303 6.52867C42.303 5.05435 41.1563 3.8578 39.7434 3.8578H6.25717C4.8443 3.8578 3.697 5.05435 3.697 6.52867V41.4713C3.697 42.9456 4.8443 44.1422 6.25717 44.1422H39.7434C41.1563 44.1422 42.303 42.9456 42.303 41.4713V6.52867Z" fill="#123459"/>
<path fill-rule="evenodd" clip-rule="evenodd" d="M29.1396 15.4203H25.7599C24.7396 15.4203 23.9114 14.5562 23.9114 13.4914C23.9114 12.4266 24.7396 11.5625 25.7599 11.5625H35.451V21.6751C35.451 22.7398 34.6223 23.604 33.6025 23.604C32.5821 23.604 31.754 22.7398 31.754 21.6751V18.1484L12.5672 38.1697C11.8456 38.922 10.6743 38.922 9.95277 38.1697C9.23124 37.4168 9.23124 36.1945 9.95277 35.4416L29.1396 15.4203Z" fill="#123459"/>
<path fill-rule="evenodd" clip-rule="evenodd" d="M15.7232 34.8761L19.1029 34.8761C20.1232 34.8761 20.9514 35.7402 20.9514 36.805C20.9514 37.8697 20.1232 38.7339 19.1029 38.7339L9.41177 38.7339L9.41177 28.6213C9.41177 27.5566 10.2405 26.6924 11.2603 26.6924C12.2807 26.6924 13.1088 27.5566 13.1088 28.6213L13.1088 32.148L32.2956 12.1267C33.0172 11.3744 34.1885 11.3744 34.91 12.1267C35.6316 12.8796 35.6316 14.1018 34.91 14.8548L15.7232 34.8761Z" fill="#123459"/>
</svg>
