<svg width="46" height="40" viewBox="0 0 46 40" fill="none" xmlns="http://www.w3.org/2000/svg">
<path fill-rule="evenodd" clip-rule="evenodd" d="M5.0291 22.4449H1.022C0.604202 22.4449 0.228 22.1969 0.073359 21.8191C-0.0821862 21.4405 0.0145774 21.008 0.316624 20.7264L22.2946 0.275387C22.6898 -0.0917957 23.3102 -0.0917957 23.7054 0.275387L31.054 7.11417V5.09555C31.054 4.66305 31.4139 4.31263 31.8561 4.31263H38.0526C38.4957 4.31263 38.8548 4.66305 38.8548 5.09555V14.3722L45.6834 20.7264C45.9854 21.008 46.0822 21.4405 45.9266 21.8191C45.772 22.1969 45.3958 22.4449 44.978 22.4449H40.9709V37.9178C40.9709 39.067 40.015 40 38.8376 40H7.16242C5.98498 40 5.0291 39.067 5.0291 37.9178V22.4449ZM18.7469 25.4733C18.7469 25.0408 18.387 24.6904 17.9448 24.6904H11.7483C11.3052 24.6904 10.9461 25.0408 10.9461 25.4733V36.4173C10.9461 36.8489 11.3052 37.2002 11.7483 37.2002H17.9448C18.387 37.2002 18.7469 36.8489 18.7469 36.4173V25.4733ZM35.0466 25.4733C35.0466 25.0408 34.6867 24.6904 34.2445 24.6904H28.048C27.6049 24.6904 27.2458 25.0408 27.2458 25.4733V31.9908C27.2458 32.4224 27.6049 32.7737 28.048 32.7737H34.2445C34.6867 32.7737 35.0466 32.4224 35.0466 31.9908V25.4733ZM22.9783 17.4844L25.5213 14.9027C26.5549 13.8479 27.0722 12.7402 27.0722 11.5795C27.0722 10.5141 26.6933 9.63502 25.9346 8.94214C25.1758 8.25014 24.1964 7.90326 22.9955 7.90326C22.1047 7.90326 21.2818 8.09833 20.5266 8.48846C19.7706 8.87771 19.1774 9.39494 18.7469 10.0402L20.6171 11.7816C21.3062 10.9793 22.0423 10.5786 22.8237 10.5786C23.2487 10.5786 23.596 10.6863 23.8663 10.9025C24.1358 11.1179 24.2715 11.4003 24.2715 11.7481C24.2715 11.9493 24.2037 12.1779 24.0689 12.433C23.9333 12.6881 23.7985 12.8973 23.6638 13.0597C23.529 13.223 23.3491 13.4278 23.1248 13.674L19.1349 17.8296V20H27.2531V17.4844H22.9783Z" fill="#123459"/>
</svg>
