<svg width="41" height="41" viewBox="0 0 41 41" fill="none" xmlns="http://www.w3.org/2000/svg">
<path fill-rule="evenodd" clip-rule="evenodd" d="M38.192 41H2.80796C2.06292 41 1.3478 40.6914 0.823651 40.1418C0.295754 39.5918 0 38.8463 0 38.0691V2.93092C0 2.1537 0.295754 1.40816 0.823651 0.858586C1.3478 0.309015 2.06292 0 2.80796 0H38.192C38.9371 0 39.6522 0.309015 40.1763 0.858586C40.7042 1.40816 41 2.1537 41 2.93092V38.0691C41 38.8463 40.7042 39.5918 40.1763 40.1418C39.6522 40.6914 38.9371 41 38.192 41ZM18.3603 4.47207H4.27931V36.5283H18.3603V4.47207ZM36.7169 16.0283V4.47207H22.6397V16.0283H36.7169ZM22.6397 36.5283H36.7169V20.5H22.6397V36.5283Z" fill="#123557"/>
</svg>
