<svg width="45" height="48" viewBox="0 0 45 48" fill="none" xmlns="http://www.w3.org/2000/svg">
<path fill-rule="evenodd" clip-rule="evenodd" d="M4.34067 17.1848C3.92194 18.3431 2.63932 18.9443 1.47815 18.5266C0.316989 18.1089 -0.285692 16.8295 0.133038 15.6712C3.43511 6.53695 12.2061 0 22.4955 0C32.7849 0 41.5558 6.53695 44.8584 15.6712C45.2771 16.8295 44.674 18.1089 43.5133 18.5266C42.3521 18.9443 41.0695 18.3431 40.6508 17.1848C37.9697 9.76941 30.8492 4.46171 22.4955 4.46171C14.1422 4.46171 7.02125 9.76941 4.34067 17.1848ZM39.3534 33.0644C39.9551 31.9892 41.3185 31.604 42.3963 32.2042C43.4742 32.8043 43.8604 34.1643 43.2587 35.2389C39.1954 42.4987 31.4158 47.4111 22.4955 47.4111C13.5751 47.4111 5.79555 42.4987 1.73224 35.2389C1.13057 34.1643 1.51678 32.8043 2.5946 32.2042C3.67242 31.604 5.03584 31.9892 5.63751 33.0644C8.93705 38.9586 15.2526 42.9494 22.4955 42.9494C29.7384 42.9494 36.0544 38.9586 39.3534 33.0644Z" fill="#123459"/>
<path fill-rule="evenodd" clip-rule="evenodd" d="M5.90707 45.7691C5.90707 47 4.90462 47.9999 3.6707 47.9999C2.43622 47.9999 1.43433 47 1.43433 45.7691V31.921H15.3172C16.5511 31.921 17.5535 32.9204 17.5535 34.1518C17.5535 35.3826 16.5511 36.3826 15.3172 36.3826H5.90707V45.7691Z" fill="#123459"/>
<path fill-rule="evenodd" clip-rule="evenodd" d="M40.5273 4.8113C40.5273 3.58047 41.5297 2.58052 42.7636 2.58052C43.9981 2.58052 45 3.58047 45 4.8113V18.6594H31.1172C29.8832 18.6594 28.8808 17.66 28.8808 16.4286C28.8808 15.1978 29.8832 14.1979 31.1172 14.1979L40.5273 14.1979V4.8113Z" fill="#123459"/>
</svg>
