<svg width="48" height="52" viewBox="0 0 48 52" fill="none" xmlns="http://www.w3.org/2000/svg">
<path fill-rule="evenodd" clip-rule="evenodd" d="M16.5998 34.1815C13.6966 31.8792 11.835 28.3293 11.835 24.3495C11.835 17.4158 17.4885 11.7861 24.4523 11.7861C31.4161 11.7861 37.0697 17.4158 37.0697 24.3495C37.0697 28.3293 35.2081 31.8792 32.3056 34.1815V38.2109C32.3056 40.9235 30.0931 43.1266 27.369 43.1266H21.5357C18.8115 43.1266 16.5991 40.9235 16.5991 38.2109L16.5998 34.1815ZM20.6388 38.2109C20.6388 38.7037 21.0408 39.1039 21.5357 39.1039H27.369C27.8639 39.1039 28.2658 38.7037 28.2658 38.2109V32.0777L29.1714 31.481C31.4949 29.9517 33.03 27.3283 33.03 24.3495C33.03 19.6357 29.1862 15.8088 24.4523 15.8088C19.7185 15.8088 15.8747 19.6357 15.8747 24.3495C15.8747 27.3283 17.4098 29.9517 19.7333 31.481L20.6388 32.0777V38.2109Z" fill="#123459"/>
<path fill-rule="evenodd" clip-rule="evenodd" d="M26.0582 46.3781C26.0582 45.2679 26.9634 44.3665 28.0779 44.3665C29.1928 44.3665 30.0981 45.2679 30.0981 46.3781C30.0981 49.4807 27.5682 51.9999 24.4524 51.9999C21.3365 51.9999 18.8066 49.4807 18.8066 46.3781C18.8066 45.2679 19.7119 44.3665 20.8264 44.3665C21.9413 44.3665 22.8465 45.2679 22.8465 46.3781C22.8465 47.2607 23.566 47.9771 24.4524 47.9771C25.3388 47.9771 26.0582 47.2607 26.0582 46.3781Z" fill="#123459"/>
<path fill-rule="evenodd" clip-rule="evenodd" d="M22.4319 2.01127C22.4319 0.901152 23.3372 0 24.452 0C25.5665 0 26.4718 0.901152 26.4718 2.01127V6.17161C26.4718 7.28173 25.5665 8.18288 24.452 8.18288C23.3372 8.18288 22.4319 7.28173 22.4319 6.17161V2.01127Z" fill="#123459"/>
<path fill-rule="evenodd" clip-rule="evenodd" d="M2.01981 24.6873C0.904977 24.6873 0 23.7858 0 22.6756C0 21.5659 0.904977 20.6644 2.01981 20.6644H6.19781C7.31264 20.6644 8.21761 21.5659 8.21761 22.6756C8.21761 23.7858 7.31264 24.6873 6.19781 24.6873H2.01981Z" fill="#123459"/>
<path fill-rule="evenodd" clip-rule="evenodd" d="M6.83251 10.3322C6.04421 9.54724 6.04446 8.27258 6.83276 7.48761C7.6208 6.7029 8.90088 6.70264 9.68919 7.48761L12.6435 10.4294C13.4318 11.2144 13.4315 12.4891 12.6435 13.2738C11.8552 14.0587 10.5751 14.059 9.78681 13.274L6.83251 10.3322Z" fill="#123459"/>
<path fill-rule="evenodd" clip-rule="evenodd" d="M45.9802 20.6644C47.095 20.6644 48 21.5659 48 22.6756C48 23.7858 47.095 24.6873 45.9802 24.6873H41.8022C40.6874 24.6873 39.7824 23.7858 39.7824 22.6756C39.7824 21.5659 40.6874 20.6644 41.8022 20.6644H45.9802Z" fill="#123459"/>
<path fill-rule="evenodd" clip-rule="evenodd" d="M38.3111 7.48761C39.0994 6.70264 40.3794 6.7029 41.1675 7.48761C41.9558 8.27258 41.956 9.54724 41.1677 10.3322L38.2134 13.274C37.4251 14.059 36.1451 14.0587 35.3568 13.2738C34.5687 12.4891 34.5685 11.2144 35.3568 10.4294L38.3111 7.48761Z" fill="#123459"/>
<path fill-rule="evenodd" clip-rule="evenodd" d="M22.5315 18.6156L26.3733 19.8593L24.1635 24.606L29.0294 23.8564L23.3401 34.8684L23.1724 34.7967L25.7862 26.6012L19.9629 28.5073L22.5315 18.6156Z" fill="#123459"/>
</svg>
