<svg width="55" height="40" viewBox="0 0 55 40" fill="none" xmlns="http://www.w3.org/2000/svg">
<path fill-rule="evenodd" clip-rule="evenodd" d="M45.7987 36.4316H40.6519V20.7376C40.6519 18.7392 42.2594 17.1169 44.2391 17.1169H51.4132C53.3929 17.1169 55 18.7392 55 20.7376V32.8104C55 34.8093 53.3929 36.4316 51.4132 36.4316H51.3272V38.605C51.3272 39.3747 50.7078 40 49.9448 40H47.181C46.4181 40 45.7987 39.3747 45.7987 38.605V36.4316ZM7.26873 36.4316H6.36403C4.69424 36.4316 3.33827 35.0628 3.33827 33.3772V27.2684C3.33827 25.5828 4.69424 24.214 6.36403 24.214H37.0396V36.4316H12.7968V38.605C12.7968 39.3747 12.1774 40 11.4149 40H8.65063C7.88771 40 7.26873 39.3747 7.26873 38.605V36.4316ZM15.6756 19.2711V7.16954C15.6756 3.21235 18.8578 0 22.7779 0H47.8977C51.8178 0 55 3.21235 55 7.16954V12.4838H43.9361C40.1747 12.4838 37.1061 15.5037 36.9825 19.2711H15.6756ZM0 17.7478V15.1363H9.10104V12.7115L12.7968 16.4423L9.10104 20.1726V17.7478H0Z" fill="#123459"/>
</svg>
