<svg width="46" height="43" viewBox="0 0 46 43" fill="none" xmlns="http://www.w3.org/2000/svg">
<path fill-rule="evenodd" clip-rule="evenodd" d="M11.9529 40.9824C11.9529 42.0955 11.1246 42.9994 10.1043 42.9994C9.08404 42.9994 8.2561 42.0955 8.2561 40.9824V4.95035C8.2561 2.21796 10.2884 0 12.7921 0H33.2075C35.7109 0 37.7435 2.21796 37.7435 4.95035V40.9824C37.7435 42.0955 36.9152 42.9994 35.8949 42.9994C34.8747 42.9994 34.0463 42.0955 34.0463 40.9824V4.95035C34.0463 4.44488 33.6707 4.0347 33.2075 4.0347H12.7921C12.329 4.0347 11.9529 4.44488 11.9529 4.95035V40.9824Z" fill="#123459"/>
<path fill-rule="evenodd" clip-rule="evenodd" d="M1.84849 42.9996C0.828736 42.9996 0 42.0959 0 40.9825C0 39.8697 0.828736 38.9653 1.84849 38.9653H44.1515C45.1719 38.9653 46 39.8697 46 40.9825C46 42.0959 45.1719 42.9996 44.1515 42.9996H1.84849Z" fill="#123459"/>
<path d="M21.1511 0.000682831L21.1511 43H24.8481L24.8481 0.000682831H21.1511Z" fill="#123459"/>
<path fill-rule="evenodd" clip-rule="evenodd" d="M19.0327 23.5569C19.0327 24.6701 18.2046 25.574 17.1842 25.574C16.1644 25.574 15.3357 24.6701 15.3357 23.5569L15.3357 17.9271C15.3357 16.8138 16.1644 15.91 17.1842 15.91C18.2046 15.91 19.0327 16.8138 19.0327 17.9271L19.0327 23.5569Z" fill="#123459"/>
<path fill-rule="evenodd" clip-rule="evenodd" d="M30.664 23.5569C30.664 24.6701 29.8359 25.574 28.8155 25.574C27.7958 25.574 26.967 24.6701 26.967 23.5569L26.967 17.9271C26.967 16.8138 27.7958 15.91 28.8155 15.91C29.8359 15.91 30.664 16.8138 30.664 17.9271L30.664 23.5569Z" fill="#123459"/>
</svg>
