<svg width="46" height="61" viewBox="0 0 46 61" fill="none" xmlns="http://www.w3.org/2000/svg">
<path fill-rule="evenodd" clip-rule="evenodd" d="M1.69178 58.1174C0.757652 58.1174 0 57.3416 0 56.3844L0 4.45314C0 3.27198 0.458148 2.13948 1.27301 1.30448C2.08788 0.469483 3.19308 0 4.34576 0H41.6548C42.8075 0 43.9126 0.469483 44.7275 1.30448C45.5424 2.13948 46 3.27198 46 4.45314V56.3844C46 57.3416 45.2429 58.1174 44.3087 58.1174H40.0374C39.1033 58.1174 38.3462 57.3416 38.3462 56.3844V8.99694C38.3462 8.35991 37.8422 7.84343 37.22 7.84343H8.78004C8.15837 7.84343 7.65434 8.35991 7.65434 8.99694V56.3844C7.65434 57.3416 6.89721 58.1174 5.96309 58.1174H1.69178ZM31.0923 16.7884V54.8123L20.2281 60.5223C18.9178 61.2114 17.3523 61.1516 16.096 60.3647C14.8397 59.5784 14.0734 58.1782 14.0734 56.6697V14.931C14.0734 13.4224 14.8397 12.0223 16.096 11.236C17.3523 10.4496 18.9178 10.3899 20.2281 11.0784L31.0923 16.7884ZM26.2862 33.7565C25.1853 33.7565 24.2916 34.6723 24.2916 35.8003C24.2916 36.9284 25.1853 37.8441 26.2862 37.8441C27.3871 37.8441 28.2807 36.9284 28.2807 35.8003C28.2807 34.6723 27.3871 33.7565 26.2862 33.7565Z" fill="#123459"/>
</svg>
