<svg width="45" height="40" viewBox="0 0 45 40" fill="none" xmlns="http://www.w3.org/2000/svg">
<path fill-rule="evenodd" clip-rule="evenodd" d="M26.9138 34.8782H38.1228C38.5099 34.8782 38.852 35.1397 38.9497 35.5151C39.0512 35.8904 38.8858 36.2857 38.5475 36.4786L35.266 38.3564C34.1083 39.0189 32.8002 39.3674 31.4658 39.3674H8.32992C6.99552 39.3674 5.68744 39.0189 4.5297 38.3564L1.24821 36.4786C0.909916 36.2857 0.744545 35.8904 0.846035 35.5151C0.943766 35.1397 1.28581 34.8782 1.67297 34.8782H12.8782C7.09329 32.2161 3.0675 26.3643 3.0675 19.5801V14.1637H36.7282V16.1588C40.9682 16.1588 44.4114 19.6023 44.4114 23.8439C44.4114 28.0852 40.9682 31.5287 36.7282 31.5287C35.2773 31.5287 33.9203 31.1261 32.7626 30.4266C31.1726 32.3082 29.1804 33.8371 26.9138 34.8782ZM36.7207 20.0013C36.6568 22.5954 36.0065 25.0449 34.8939 27.2209C35.4389 27.5176 36.0629 27.6861 36.7282 27.6861C38.8482 27.6861 40.5698 25.9645 40.5698 23.8439C40.5698 21.7229 38.8482 20.0013 36.7282 20.0013C36.7245 20.0013 36.7245 20.0013 36.7207 20.0013ZM14.1975 1.55551C13.9006 0.99704 14.2013 0.342761 14.8666 0.0951509C15.5282 -0.152459 16.3063 0.0998963 16.6032 0.658363L17.6181 2.58959C18.4075 4.08347 18.1406 5.8215 16.934 7.10034L16.5732 7.48075C16.2912 7.77959 16.2048 8.17805 16.3439 8.54109L16.9866 10.2038C17.2084 10.7848 16.8325 11.4096 16.1409 11.5984C15.4492 11.7869 14.7087 11.4685 14.4832 10.8872L13.8404 9.22478C13.427 8.15496 13.6826 6.9827 14.5133 6.10262L14.8741 5.72188C15.4718 5.08847 15.6034 4.22705 15.2124 3.48706L14.1975 1.55551ZM22.2754 1.55551C21.9822 0.99704 22.2829 0.342761 22.9482 0.0951509C23.6098 -0.152459 24.3878 0.0998963 24.681 0.658363L25.6997 2.58959C26.4891 4.08347 26.2222 5.8215 25.0118 7.10034L24.6547 7.48075C24.3728 7.77959 24.2864 8.17805 24.4254 8.54109L25.0682 10.2038C25.29 10.7848 24.9141 11.4096 24.2225 11.5984C23.5308 11.7869 22.7903 11.4685 22.5648 10.8872L21.922 9.22478C21.5085 8.15496 21.7642 6.9827 22.5949 6.10262L22.9557 5.72188C23.5534 5.08847 23.6849 4.22705 23.294 3.48706L22.2754 1.55551Z" fill="#123459"/>
</svg>
