<svg width="46" height="56" viewBox="0 0 46 56" fill="none" xmlns="http://www.w3.org/2000/svg">
<path fill-rule="evenodd" clip-rule="evenodd" d="M39.0357 24.1104V16.6223C39.0357 7.44807 31.8505 0 22.9999 0C14.1495 0 6.96386 7.44807 6.96386 16.6223V24.1104C3.05896 24.495 0 27.908 0 32.0557V48.0185C0 52.4236 3.45006 56 7.6998 56H38.3002C42.5495 56 46 52.4236 46 48.0185V32.0557C46 27.908 42.9401 24.495 39.0357 24.1104ZM12.8505 34.1288C14.1266 34.1288 15.1628 35.203 15.1628 36.5257C15.1628 37.8487 14.1266 38.9226 12.8505 38.9226C11.5742 38.9226 10.5381 37.8487 10.5381 36.5257C10.5381 35.203 11.5742 34.1288 12.8505 34.1288ZM12.8566 24.0744V16.6223C12.8566 10.8193 17.4016 6.10813 22.9999 6.10813C28.5982 6.10813 33.143 10.8193 33.143 16.6223V24.0744H12.8566ZM33.1495 34.1288C34.4263 34.1288 35.4608 35.203 35.4608 36.5257C35.4608 37.8487 34.4263 38.9226 33.1495 38.9226C31.8732 38.9226 30.837 37.8487 30.837 36.5257C30.837 35.203 31.8732 34.1288 33.1495 34.1288ZM22.9999 41.1518C24.2762 41.1518 25.3122 42.2257 25.3122 43.5485C25.3122 44.8714 24.2762 45.9453 22.9999 45.9453C21.7238 45.9453 20.6875 44.8714 20.6875 43.5485C20.6875 42.2257 21.7238 41.1518 22.9999 41.1518ZM29.7662 41.1518C31.0423 41.1518 32.0779 42.2257 32.0779 43.5485C32.0779 44.8714 31.0423 45.9453 29.7662 45.9453C28.4899 45.9453 27.4539 44.8714 27.4539 43.5485C27.4539 42.2257 28.4899 41.1518 29.7662 41.1518ZM16.2335 41.1518C17.5098 41.1518 18.5459 42.2257 18.5459 43.5485C18.5459 44.8714 17.5098 45.9453 16.2335 45.9453C14.9574 45.9453 13.9212 44.8714 13.9212 43.5485C13.9212 42.2257 14.9574 41.1518 16.2335 41.1518ZM19.6168 34.1288C20.8929 34.1288 21.9292 35.203 21.9292 36.5257C21.9292 37.8487 20.8929 38.9226 19.6168 38.9226C18.3405 38.9226 17.3045 37.8487 17.3045 36.5257C17.3045 35.203 18.3405 34.1288 19.6168 34.1288ZM26.3832 34.1288C27.6593 34.1288 28.6953 35.203 28.6953 36.5257C28.6953 37.8487 27.6593 38.9226 26.3832 38.9226C25.1069 38.9226 24.0708 37.8487 24.0708 36.5257C24.0708 35.203 25.1069 34.1288 26.3832 34.1288Z" fill="#123459"/>
</svg>
