<svg width="45" height="54" viewBox="0 0 45 54" fill="none" xmlns="http://www.w3.org/2000/svg">
<path fill-rule="evenodd" clip-rule="evenodd" d="M14.3155 2.17663L17.1962 6.47946L24.5199 10.6074L17.1962 14.7358L12.8578 21.2153L8.51978 14.7358L1.19604 10.6074L8.51978 6.47946L12.8578 0L14.3155 2.17663ZM12.8578 6.33383L10.9663 9.15854L8.39542 10.6074L10.9663 12.0567L12.8578 14.8814L14.7492 12.0567L17.3201 10.6074L14.7492 9.15854L12.8578 6.33383Z" fill="#123459"/>
<path fill-rule="evenodd" clip-rule="evenodd" d="M37.9923 34.5637L18.8427 23.427L22.5642 16.934C24.3322 13.8493 28.2537 12.791 31.3167 14.5723L39.3681 19.2547C42.4311 21.036 43.4819 24.9861 41.7138 28.0708L37.9923 34.5637ZM38.6684 26.2996C39.4662 24.9077 38.9923 23.1258 37.6101 22.3219L29.5587 17.6395C28.1764 16.8357 26.4075 17.3133 25.6097 18.7052L23.6459 22.1314L36.7046 29.7258L38.6684 26.2996Z" fill="#123459"/>
<path fill-rule="evenodd" clip-rule="evenodd" d="M35.8567 19.2567C35.3715 20.1032 34.2957 20.3936 33.4554 19.9049C32.615 19.4162 32.3268 18.3325 32.812 17.486L41.0764 3.06717C41.5616 2.22069 42.6373 1.93033 43.4777 2.41904C44.318 2.90776 44.6063 3.99139 44.1211 4.83787L35.8567 19.2567Z" fill="#123459"/>
<path fill-rule="evenodd" clip-rule="evenodd" d="M23.5875 20.4726C22.7472 19.9839 22.4589 18.9002 22.9441 18.0537C23.4292 17.2073 24.505 16.9169 25.3454 17.4056L39.6598 25.7304C40.5001 26.2191 40.7884 27.3027 40.3032 28.1492C39.818 28.9957 38.7422 29.286 37.9019 28.7973L23.5875 20.4726Z" fill="#123459"/>
<path fill-rule="evenodd" clip-rule="evenodd" d="M21.1136 23.3262C21.7029 22.5498 22.8069 22.4015 23.5777 22.9951C24.3481 23.5887 24.4957 24.7012 23.9064 25.4772C20.7523 29.6317 15.7811 32.3125 10.1937 32.3125C6.84713 32.3125 3.72207 31.3502 1.07559 29.6866C0.252469 29.1695 0.00109255 28.0761 0.514831 27.247C1.02857 26.4179 2.11362 26.1651 2.93674 26.6826C5.04311 28.0062 7.5305 28.7711 10.1937 28.7711C14.6437 28.7711 18.602 26.6348 21.1136 23.3262Z" fill="#123459"/>
<path fill-rule="evenodd" clip-rule="evenodd" d="M32.8634 31.4237C32.5245 30.5079 32.9874 29.4876 33.8966 29.1462C34.8055 28.8051 35.8191 29.2713 36.1576 30.1869C37.9706 35.0878 37.5779 40.754 34.6041 45.5188C32.823 48.3727 30.3509 50.5254 27.5442 51.8969C26.6715 52.3236 25.6187 51.9561 25.1953 51.0767C24.7719 50.1973 25.1369 49.1374 26.01 48.7109C28.2435 47.6191 30.2103 45.905 31.6277 43.6339C33.9962 39.839 34.3074 35.3265 32.8634 31.4237Z" fill="#123459"/>
<path fill-rule="evenodd" clip-rule="evenodd" d="M20.4071 36.3905C21.0048 35.6206 22.1106 35.4843 22.8749 36.0863C23.6393 36.6884 23.7746 37.8022 23.1769 38.5721C22.0701 39.9977 20.7225 41.2722 19.1462 42.3293C16.3606 44.1974 13.2299 45.1409 10.1117 45.2335C9.14207 45.2626 8.33127 44.4928 8.30273 43.5158C8.2742 42.5389 9.03831 41.7227 10.0082 41.694C12.4897 41.6199 14.9811 40.8681 17.1979 39.3814C18.453 38.5397 19.5262 37.5259 20.4071 36.3905Z" fill="#123459"/>
<path fill-rule="evenodd" clip-rule="evenodd" d="M24.6845 40.1647C25.0818 39.273 26.1229 38.8739 27.0082 39.2741C27.8934 39.6743 28.2896 40.7231 27.8923 41.6148C27.1566 43.2658 26.1512 44.8282 24.872 46.2348C22.6115 48.7205 19.7961 50.3916 16.7907 51.2336C15.8562 51.4958 14.886 50.9439 14.626 50.0023C14.3661 49.0606 14.914 48.084 15.8488 47.8221C18.2405 47.1516 20.4807 45.8208 22.2796 43.8427C23.2981 42.7227 24.099 41.4795 24.6845 40.1647Z" fill="#123459"/>
<path fill-rule="evenodd" clip-rule="evenodd" d="M14.3177 33.591C15.1652 33.1149 16.2368 33.4213 16.7094 34.2749C17.1821 35.1285 16.8779 36.208 16.0304 36.684C14.4614 37.5656 12.7285 38.2136 10.8685 38.572C7.58157 39.2054 4.33265 38.8516 1.423 37.7185C0.518095 37.3665 0.0672449 36.3401 0.417177 35.4285C0.767109 34.5169 1.78568 34.0633 2.69067 34.4158C5.00642 35.3171 7.59219 35.5977 10.2079 35.0937C11.6889 34.8083 13.0685 34.2932 14.3177 33.591Z" fill="#123459"/>
</svg>
