<svg width="49" height="38" viewBox="0 0 49 38" fill="none" xmlns="http://www.w3.org/2000/svg">
<path fill-rule="evenodd" clip-rule="evenodd" d="M7.11994 34.466C7.11994 36.4164 5.52507 38 3.55997 38C1.59558 38 0 36.4164 0 34.466L0 3.53406C0 1.58366 1.59558 0 3.55997 0C5.52507 0 7.11994 1.58366 7.11994 3.53406L7.11994 34.466Z" fill="#123459"/>
<path fill-rule="evenodd" clip-rule="evenodd" d="M17.6959 34.466C17.6959 36.4164 16.101 38 14.1359 38C12.1715 38 10.5759 36.4164 10.5759 34.466L10.5759 3.53406C10.5759 1.58366 12.1715 0 14.1359 0C16.101 0 17.6959 1.58366 17.6959 3.53406L17.6959 34.466Z" fill="#123459"/>
<path fill-rule="evenodd" clip-rule="evenodd" d="M28.2711 34.466C28.2711 36.4164 26.6762 38 24.7111 38C22.7467 38 21.1511 36.4164 21.1511 34.466L21.1511 3.53406C21.1511 1.58366 22.7467 0 24.7111 0C26.6762 0 28.2711 1.58366 28.2711 3.53406L28.2711 34.466Z" fill="#123459"/>
<path fill-rule="evenodd" clip-rule="evenodd" d="M38.8465 34.466C38.8465 36.4164 37.2516 38 35.2865 38C33.3221 38 31.7266 36.4164 31.7266 34.466L31.7266 3.53406C31.7266 1.58366 33.3221 0 35.2865 0C37.2516 0 38.8465 1.58366 38.8465 3.53406V34.466Z" fill="#123459"/>
<path fill-rule="evenodd" clip-rule="evenodd" d="M42.3022 0.983398H45.44C47.4051 0.983398 49 2.56739 49 4.51751C49 6.46834 47.4051 8.05162 45.44 8.05162H42.3022V0.983398Z" fill="#123459"/>
</svg>
