<svg width="45" height="43" viewBox="0 0 45 43" fill="none" xmlns="http://www.w3.org/2000/svg">
<path fill-rule="evenodd" clip-rule="evenodd" d="M3.61524 32.2163C3.61524 33.2087 2.80543 34.015 1.80762 34.015C0.810266 34.015 0 33.2087 0 32.2163V21.0479C0 15.4954 4.53035 10.9879 10.11 10.9879C15.6902 10.9879 20.2201 15.4954 20.2201 21.0479V32.2163C20.2201 33.2087 19.4102 34.015 18.4124 34.015C17.4146 34.015 16.6048 33.2087 16.6048 32.2163V21.0479C16.6048 17.4807 13.6945 14.5853 10.11 14.5853C6.52552 14.5853 3.61524 17.4807 3.61524 21.0479V32.2163Z" fill="#123459"/>
<path fill-rule="evenodd" clip-rule="evenodd" d="M16.6048 26.8354C16.6048 25.843 17.4146 25.0367 18.4124 25.0367C19.4102 25.0367 20.2201 25.843 20.2201 26.8354V37.3806C20.2201 40.4819 17.6894 43.0001 14.5726 43.0001H5.64746C2.53067 43.0001 0 40.4819 0 37.3806V26.8354C0 25.843 0.810266 25.0367 1.80762 25.0367C2.80543 25.0367 3.61524 25.843 3.61524 26.8354V37.3806C3.61524 38.4967 4.52584 39.4027 5.64746 39.4027H14.5726C15.6942 39.4027 16.6048 38.4967 16.6048 37.3806V26.8354Z" fill="#123459"/>
<path fill-rule="evenodd" clip-rule="evenodd" d="M16.5785 13.3986C16.5785 14.3915 15.7687 15.1973 14.7709 15.1973C13.7731 15.1973 12.9633 14.3915 12.9633 13.3986V5.61979C12.9633 4.50372 12.0527 3.59763 10.9311 3.59763H9.2893C8.16767 3.59763 7.25709 4.50372 7.25709 5.61979V13.3986C7.25709 14.3915 6.44682 15.1973 5.44947 15.1973C4.45166 15.1973 3.64185 14.3915 3.64185 13.3986V5.61979C3.64185 2.51844 6.17206 0.000294685 9.2893 0.000294685H10.9311C14.0479 0.000294685 16.5785 2.51844 16.5785 5.61979V13.3986Z" fill="#123459"/>
<path fill-rule="evenodd" clip-rule="evenodd" d="M10.1104 22.7008C13.088 22.7008 15.5052 25.1065 15.5052 28.0694C15.5052 31.0322 13.088 33.438 10.1104 33.438C7.13278 33.438 4.71509 31.0322 4.71509 28.0694C4.71509 25.1065 7.13278 22.7008 10.1104 22.7008ZM10.1104 26.2981C9.12794 26.2981 8.33033 27.0918 8.33033 28.0694C8.33033 29.0469 9.12794 29.8406 10.1104 29.8406C11.0928 29.8406 11.89 29.0469 11.89 28.0694C11.89 27.0918 11.0928 26.2981 10.1104 26.2981Z" fill="#123459"/>
<path fill-rule="evenodd" clip-rule="evenodd" d="M8.30225 20.2199C8.30225 19.2271 9.11251 18.4213 10.1099 18.4213C11.1077 18.4213 11.9175 19.2271 11.9175 20.2199V24.4999C11.9175 25.4927 11.1077 26.2985 10.1099 26.2985C9.11251 26.2985 8.30225 25.4927 8.30225 24.4999V20.2199Z" fill="#123459"/>
<path fill-rule="evenodd" clip-rule="evenodd" d="M5.89942 9.39714C4.90161 9.39714 4.0918 8.59134 4.0918 7.59847C4.0918 6.60561 4.90161 5.7998 5.89942 5.7998H12.8583C13.8561 5.7998 14.6659 6.60561 14.6659 7.59847C14.6659 8.59134 13.8561 9.39714 12.8583 9.39714H5.89942Z" fill="#123459"/>
<path fill-rule="evenodd" clip-rule="evenodd" d="M10.425 3.59734C9.42697 3.59734 8.61719 2.79154 8.61719 1.79867C8.61719 0.805804 9.42697 0 10.425 0H17.5998C18.5974 0 19.4076 0.805804 19.4076 1.79867C19.4076 2.79154 18.5974 3.59734 17.5998 3.59734H10.425Z" fill="#123459"/>
<path fill-rule="evenodd" clip-rule="evenodd" d="M18.0134 15.1617C17.6953 16.1024 16.6695 16.6096 15.7236 16.2931C14.7782 15.9765 14.2685 14.9558 14.5866 14.015C15.5072 11.2914 18.0952 9.32727 21.1411 9.32727H35.6983C39.5142 9.32727 42.612 12.4097 42.612 16.2067C42.612 20.0037 39.5142 23.0862 35.6983 23.0862H21.1411C20.1433 23.0862 19.3334 22.2804 19.3334 21.2875C19.3334 20.2951 20.1433 19.4888 21.1411 19.4888H35.6983C37.519 19.4888 38.9967 18.0184 38.9967 16.2067C38.9967 14.395 37.519 12.9246 35.6983 12.9246H21.1411C19.6877 12.9246 18.4527 13.8617 18.0134 15.1617Z" fill="#123459"/>
<path fill-rule="evenodd" clip-rule="evenodd" d="M19.1512 23.0862C18.1536 23.0862 17.3438 22.2801 17.3438 21.2876C17.3438 20.2947 18.1536 19.489 19.1512 19.489H31.9824C35.6841 19.489 38.69 22.4795 38.69 26.1634C38.69 29.8473 35.6841 32.8377 31.9824 32.8377H22.7207C21.7231 32.8377 20.9132 32.032 20.9132 31.0391C20.9132 30.0466 21.7231 29.2405 22.7207 29.2405H31.9824C33.689 29.2405 35.0746 27.8618 35.0746 26.1634C35.0746 24.4649 33.689 23.0862 31.9824 23.0862H19.1512Z" fill="#123459"/>
<path fill-rule="evenodd" clip-rule="evenodd" d="M18.4124 32.8382C17.4147 32.8382 16.6047 32.0319 16.6047 31.0395C16.6047 30.0466 17.4147 29.2408 18.4124 29.2408H38.0867C41.9024 29.2408 45.0001 32.3233 45.0001 36.1203C45.0001 39.9173 41.9024 42.9998 38.0867 42.9998H13.313C12.3154 42.9998 11.5054 42.1939 11.5054 41.2011C11.5054 40.2087 12.3154 39.4024 13.313 39.4024H38.0867C39.9071 39.4024 41.3848 37.932 41.3848 36.1203C41.3848 34.3086 39.9071 32.8382 38.0867 32.8382H18.4124Z" fill="#123459"/>
<path fill-rule="evenodd" clip-rule="evenodd" d="M22.8024 18.0337C21.8049 18.0337 20.9946 17.2279 20.9946 16.2351C20.9946 15.2427 21.8049 14.4364 22.8024 14.4364H33.615C34.6129 14.4364 35.4227 15.2427 35.4227 16.2351C35.4227 17.2279 34.6129 18.0337 33.615 18.0337H22.8024Z" fill="#123459"/>
<path fill-rule="evenodd" clip-rule="evenodd" d="M22.8026 27.962C21.8049 27.962 20.9949 27.1562 20.9949 26.1633C20.9949 25.1709 21.8049 24.3646 22.8026 24.3646H31.6099C32.6075 24.3646 33.4176 25.1709 33.4176 26.1633C33.4176 27.1562 32.6075 27.962 31.6099 27.962H22.8026Z" fill="#123459"/>
<path fill-rule="evenodd" clip-rule="evenodd" d="M22.802 37.9188C21.8042 37.9188 20.9944 37.1129 20.9944 36.1201C20.9944 35.1277 21.8042 34.3214 22.802 34.3214H37.6543C38.6522 34.3214 39.462 35.1277 39.462 36.1201C39.462 37.1129 38.6522 37.9188 37.6543 37.9188H22.802Z" fill="#123459"/>
</svg>
