<svg width="55" height="41" viewBox="0 0 55 41" fill="none" xmlns="http://www.w3.org/2000/svg">
<path fill-rule="evenodd" clip-rule="evenodd" d="M4.12341 36.6113H0V33.2969H5.19404C5.24062 33.2915 5.28828 33.2887 5.33629 33.2887H7.76132C7.80933 33.2887 7.85699 33.2915 7.90357 33.2969H47.1638C47.2104 33.2915 47.2577 33.2887 47.3057 33.2887H49.7311C49.7791 33.2887 49.8264 33.2915 49.873 33.2969H55V36.6113H50.9436V39.7922C50.9436 40.4589 50.4004 41 49.7311 41H47.3057C46.6364 41 46.0932 40.4589 46.0932 39.7922V36.6113H8.9742V39.7922C8.9742 40.4589 8.43064 41 7.76132 41H5.33629C4.66697 41 4.12341 40.4589 4.12341 39.7922V36.6113ZM6.80356 13.7626H3.58058V5.27352C3.58058 2.36318 5.95258 0 8.87423 0H46.1928C49.1148 0 51.4868 2.36318 51.4868 5.27352V13.7626H48.2638V9.7686C48.2638 8.17494 46.9649 6.88146 45.3654 6.88146H31.5487C29.9489 6.88146 28.65 8.17494 28.65 9.7686V13.7626H26.417V9.7686C26.417 8.17494 25.1181 6.88146 23.5187 6.88146H9.70192C8.10207 6.88146 6.80356 8.17494 6.80356 9.7686V13.7626ZM0 28.6912V22.5414C0 18.9647 2.9152 16.0611 6.50545 16.0611H48.4945C52.0852 16.0611 55 18.9647 55 22.5414V28.6912H0Z" fill="#123459"/>
</svg>
