<svg width="45" height="35" viewBox="0 0 45 35" fill="none" xmlns="http://www.w3.org/2000/svg">
<path fill-rule="evenodd" clip-rule="evenodd" d="M7.08883 15.4429C7.08883 16.3715 6.3369 17.1254 5.41136 17.1254C4.48549 17.1254 3.73389 16.3715 3.73389 15.4429V6.68379C3.73389 2.99501 6.71981 0 10.3978 0H34.6423C38.3203 0 41.3063 2.99501 41.3063 6.68379V15.4429C41.3063 16.3715 40.5547 17.1254 39.6288 17.1254C38.7029 17.1254 37.9513 16.3715 37.9513 15.4429V6.68379C37.9513 4.85201 36.4686 3.36481 34.6423 3.36481H10.3978C8.57155 3.36481 7.08883 4.85201 7.08883 6.68379V15.4429Z" fill="#123459"/>
<path fill-rule="evenodd" clip-rule="evenodd" d="M17.8301 10.2454H12.0754V13.1921C12.0754 14.1208 11.3237 14.8746 10.398 14.8746C9.47216 14.8746 8.72046 14.1208 8.72046 13.1921V10.2454C8.72046 9.37124 9.01906 8.58531 9.47154 8.01186L9.8941 7.571L10.4178 7.21157L11.0377 6.96825L11.7255 6.88037H18.18L18.8678 6.96825L19.4876 7.21157L20.0114 7.571L20.4339 8.01186C20.8863 8.58531 21.1849 9.37124 21.1849 10.2454V13.1921C21.1849 14.1208 20.4333 14.8746 19.5075 14.8746C18.5817 14.8746 17.8301 14.1208 17.8301 13.1921V10.2454Z" fill="#123459"/>
<path fill-rule="evenodd" clip-rule="evenodd" d="M32.3413 10.2454H26.5867V13.1921C26.5867 14.1208 25.835 14.8746 24.9092 14.8746C23.9834 14.8746 23.2317 14.1208 23.2317 13.1921V10.2454C23.2317 9.37124 23.5303 8.58531 23.9828 8.01186L24.4053 7.571L24.929 7.21157L25.5489 6.96825L26.2367 6.88037H32.6912L33.379 6.96825L33.9988 7.21157L34.5226 7.571L34.9451 8.01186C35.3976 8.58531 35.6962 9.37124 35.6962 10.2454V13.1921C35.6962 14.1208 34.9446 14.8746 34.0187 14.8746C33.0929 14.8746 32.3413 14.1208 32.3413 13.1921V10.2454Z" fill="#123459"/>
<path fill-rule="evenodd" clip-rule="evenodd" d="M3.39476 33.3172C3.39476 34.2459 2.6429 35.0001 1.71736 35.0001C0.791408 35.0001 0.0395508 34.2459 0.0395508 33.3172V22.171C0.0395508 16.8487 4.34805 12.5272 9.65446 12.5272H35.3852C40.692 12.5272 45.0001 16.8487 45.0001 22.171V33.3172C45.0001 34.2459 44.2487 35.0001 43.3227 35.0001C42.3968 35.0001 41.6453 34.2459 41.6453 33.3172V22.171C41.6453 18.7058 38.8401 15.8926 35.3852 15.8926H9.65446C6.19954 15.8926 3.39476 18.7058 3.39476 22.171V33.3172Z" fill="#123459"/>
<path fill-rule="evenodd" clip-rule="evenodd" d="M1.67745 31.4828C0.7515 31.4828 0 30.7291 0 29.8003C0 28.872 0.7515 28.1178 1.67745 28.1178H43.2377C44.1632 28.1178 44.9151 28.872 44.9151 29.8003C44.9151 30.7291 44.1632 31.4828 43.2377 31.4828H1.67745Z" fill="#123459"/>
<path fill-rule="evenodd" clip-rule="evenodd" d="M1.86546 22.3151C0.939688 22.3151 0.187988 21.5613 0.187988 20.6326C0.187988 19.7043 0.939688 18.9501 1.86546 18.9501H42.5513C43.4771 18.9501 44.2288 19.7043 44.2288 20.6326C44.2288 21.5613 43.4771 22.3151 42.5513 22.3151H1.86546Z" fill="#123459"/>
</svg>
