<svg width="49" height="54" viewBox="0 0 49 54" fill="none" xmlns="http://www.w3.org/2000/svg">
<path fill-rule="evenodd" clip-rule="evenodd" d="M22.2043 2.29832C22.2043 1.02971 23.2327 0 24.5 0C25.7664 0 26.7957 1.02971 26.7957 2.29832L26.7957 51.7009C26.7957 52.9696 25.7664 54 24.5 54C23.2327 54 22.2043 52.9696 22.2043 51.7009L22.2043 2.29832Z" fill="#123459"/>
<path fill-rule="evenodd" clip-rule="evenodd" d="M1.98847 16.6395C0.891269 16.0052 0.51493 14.5984 1.14854 13.4995C1.78177 12.4013 3.18696 12.0236 4.28416 12.658L47.0116 37.3593C48.1088 37.9936 48.4854 39.4013 47.8521 40.4996C47.2185 41.5985 45.8131 41.9751 44.7159 41.3408L1.98847 16.6395Z" fill="#123459"/>
<path fill-rule="evenodd" clip-rule="evenodd" d="M44.7158 12.658C45.813 12.0236 47.2182 12.4013 47.8515 13.4995C48.4851 14.5984 48.1087 16.0052 47.0115 16.6395L4.28411 41.3408C3.1869 41.9751 1.78146 41.5985 1.14785 40.4996C0.514623 39.4013 0.891214 37.9936 1.98842 37.3593L44.7158 12.658Z" fill="#123459"/>
<path fill-rule="evenodd" clip-rule="evenodd" d="M30.5747 5.77847C31.672 5.14412 33.0774 5.52167 33.7106 6.61991C34.3442 7.7188 33.9677 9.12563 32.8704 9.75999L25.6476 13.9356C24.5503 14.57 23.1452 14.1931 22.5116 13.0942C21.8783 11.996 22.2546 10.5885 23.3519 9.9541L30.5747 5.77847Z" fill="#123459"/>
<path fill-rule="evenodd" clip-rule="evenodd" d="M16.5705 9.75999C15.4732 9.12563 15.0967 7.7188 15.7303 6.61991C16.3636 5.52167 17.7689 5.14412 18.8662 5.77847L26.089 9.9541C27.1863 10.5885 27.5626 11.996 26.9294 13.0942C26.2958 14.1931 24.8906 14.57 23.7934 13.9356L16.5705 9.75999Z" fill="#123459"/>
<path fill-rule="evenodd" clip-rule="evenodd" d="M45.2739 21.1114C46.3712 21.7458 46.7473 23.1533 46.1141 24.2515C45.4805 25.3504 44.0755 25.7273 42.9782 25.0929L35.7554 20.9173C34.6581 20.2829 34.2815 18.8761 34.9151 17.7772C35.5483 16.6789 36.9538 16.3014 38.0511 16.9358L45.2739 21.1114Z" fill="#123459"/>
<path fill-rule="evenodd" clip-rule="evenodd" d="M34.8283 10.9581C34.8283 9.68936 35.8568 8.65942 37.124 8.65942C38.3904 8.65942 39.4197 9.68936 39.4197 10.9581L39.4197 19.3093C39.4197 20.5781 38.3904 21.6081 37.124 21.6081C35.8568 21.6081 34.8283 20.5781 34.8283 19.3093L34.8283 10.9581Z" fill="#123459"/>
<path fill-rule="evenodd" clip-rule="evenodd" d="M4.28374 25.0929C3.18646 25.7273 1.78146 25.3504 1.14785 24.2515C0.514617 23.1533 0.890766 21.7458 1.98805 21.1114L9.21087 16.9358C10.3082 16.3014 11.7137 16.6789 12.3469 17.7772C12.9805 18.8761 12.6039 20.2829 11.5066 20.9173L4.28374 25.0929Z" fill="#123459"/>
<path fill-rule="evenodd" clip-rule="evenodd" d="M7.84229 10.9581C7.84229 9.68936 8.87152 8.65942 10.138 8.65942C11.4052 8.65942 12.4337 9.68936 12.4337 10.9581L12.4337 19.3093C12.4337 20.5781 11.4052 21.6081 10.138 21.6081C8.87152 21.6081 7.84229 20.5781 7.84229 19.3093L7.84229 10.9581Z" fill="#123459"/>
<path fill-rule="evenodd" clip-rule="evenodd" d="M13.3299 42.4623C13.3299 43.7311 12.3014 44.761 11.0342 44.761C9.76776 44.761 8.73853 43.7311 8.73853 42.4623L8.73853 34.1111C8.73853 32.8424 9.76776 31.8123 11.0342 31.8123C12.3014 31.8123 13.3299 32.8424 13.3299 34.1111L13.3299 42.4623Z" fill="#123459"/>
<path fill-rule="evenodd" clip-rule="evenodd" d="M2.88454 32.3075C1.78725 31.6732 1.4111 30.2657 2.04433 29.1674C2.67794 28.0685 4.08294 27.6917 5.18023 28.326L12.4031 32.5016C13.5003 33.136 13.877 34.5429 13.2434 35.6418C12.6101 36.74 11.2046 37.1175 10.1074 36.4832L2.88454 32.3075Z" fill="#123459"/>
<path fill-rule="evenodd" clip-rule="evenodd" d="M39.4197 42.4623C39.4197 43.7311 38.3904 44.761 37.124 44.761C35.8568 44.761 34.8283 43.7311 34.8283 42.4623L34.8283 34.1111C34.8283 32.8424 35.8568 31.8123 37.124 31.8123C38.3904 31.8123 39.4197 32.8424 39.4197 34.1111L39.4197 42.4623Z" fill="#123459"/>
<path fill-rule="evenodd" clip-rule="evenodd" d="M42.9782 28.326C44.0755 27.6917 45.4805 28.0685 46.1141 29.1674C46.7473 30.2657 46.3712 31.6732 45.2739 32.3075L38.0511 36.4832C36.9538 37.1175 35.5483 36.74 34.9151 35.6418C34.2815 34.5429 34.6581 33.136 35.7554 32.5016L42.9782 28.326Z" fill="#123459"/>
<path fill-rule="evenodd" clip-rule="evenodd" d="M32.8704 44.1201C33.9677 44.7545 34.3442 46.1613 33.7106 47.2602C33.0774 48.3585 31.672 48.736 30.5747 48.1017L23.3519 43.926C22.2546 43.2917 21.8783 41.8841 22.5116 40.7859C23.1452 39.687 24.5503 39.3102 25.6476 39.9445L32.8704 44.1201Z" fill="#123459"/>
<path fill-rule="evenodd" clip-rule="evenodd" d="M18.8662 48.1017C17.7689 48.736 16.3636 48.3585 15.7303 47.2602C15.0967 46.1613 15.4732 44.7545 16.5705 44.1201L23.7934 39.9445C24.8906 39.3102 26.2958 39.687 26.9294 40.7859C27.5626 41.8841 27.1863 43.2917 26.089 43.926L18.8662 48.1017Z" fill="#123459"/>
</svg>
