<svg width="46" height="46" viewBox="0 0 46 46" fill="none" xmlns="http://www.w3.org/2000/svg">
<path d="M20.0879 4.38384C26.0122 -1.46073 35.6322 -1.4615 41.5566 4.38286C47.4811 10.2275 47.4811 19.7188 41.5566 25.5635C36.9812 30.0772 30.2019 31.1045 24.623 28.6465V34.1651H15.6416V40.2872H8.20898L7.87109 45.4776L0.237305 46.001L0 39.4024L17.5176 22.1915C14.3455 16.5023 15.2023 9.20375 20.0879 4.38384ZM37.9014 7.98931C36.3348 6.44401 33.7912 6.44414 32.2246 7.98931C30.658 9.53483 30.658 12.0444 32.2246 13.5899C33.7912 15.1354 36.3348 15.1354 37.9014 13.5899C39.4678 12.0444 39.4679 9.53477 37.9014 7.98931Z" fill="#123459"/>
</svg>
