<svg width="80" height="100" viewBox="0 0 80 100" fill="none" xmlns="http://www.w3.org/2000/svg">
<path fill-rule="evenodd" clip-rule="evenodd" d="M40.461 24.7549C40.0647 24.9601 39.6105 24.9601 39.2142 24.7549C36.8913 23.5503 28.873 18.8215 28.873 10.9646C28.873 4.90899 33.782 0 39.8376 0C45.8932 0 50.8022 4.90899 50.8022 10.9646C50.8022 18.8215 42.7839 23.5503 40.461 24.7549ZM39.8376 15.6637C42.4331 15.6637 44.5367 13.56 44.5367 10.9646C44.5367 8.3691 42.4331 6.26547 39.8376 6.26547C37.2421 6.26547 35.1385 8.3691 35.1385 10.9646C35.1385 13.56 37.2421 15.6637 39.8376 15.6637ZM8.71075 68.8465H1.77018C1.04652 68.8465 0.394912 68.4064 0.127063 67.736C-0.142352 67.064 0.0252491 66.2965 0.548416 65.7968L38.6158 29.5041C39.3003 28.8525 40.3749 28.8525 41.0594 29.5041L53.7877 41.6403V38.058C53.7877 37.2905 54.4111 36.6686 55.177 36.6686H65.9098C66.6773 36.6686 67.2991 37.2905 67.2991 38.058V54.5205L79.1268 65.7968C79.6499 66.2965 79.8175 67.064 79.5481 67.736C79.2803 68.4064 78.6287 68.8465 77.905 68.8465H70.9644V96.3049C70.9644 98.3444 69.3088 100 67.2694 100H12.4058C10.3664 100 8.71075 98.3444 8.71075 96.3049V68.8465ZM57.0896 74.2207C57.0896 73.4532 56.4661 72.8314 55.7002 72.8314H44.9674C44.1999 72.8314 43.5781 73.4532 43.5781 74.2207V93.6421C43.5781 94.4081 44.1999 95.0315 44.9674 95.0315H55.7002C56.4661 95.0315 57.0896 94.4081 57.0896 93.6421V74.2207ZM36.0971 74.2207C36.0971 73.4532 35.4753 72.8314 34.7077 72.8314H23.975C23.209 72.8314 22.5856 73.4532 22.5856 74.2207V85.7868C22.5856 86.5527 23.209 87.1761 23.975 87.1761H34.7077C35.4753 87.1761 36.0971 86.5527 36.0971 85.7868V74.2207Z" fill="#123459"/>
</svg>
