<svg width="106" height="101" viewBox="0 0 106 101" fill="none" xmlns="http://www.w3.org/2000/svg">
<path fill-rule="evenodd" clip-rule="evenodd" d="M83.9278 27.1736L103.307 44.9043C105.45 46.8646 105.598 50.1957 103.638 52.3384C101.677 54.4807 98.3464 54.6288 96.2039 52.6684L95.5704 52.0892V91.6495L95.3989 93.3457L94.9043 94.9366L94.1252 96.3716L93.0982 97.6163L91.8538 98.6431L90.419 99.4223L88.8278 99.9165L87.1318 100.088H17.7558L16.0599 99.9165L14.4687 99.4223L13.0338 98.6431L11.7891 97.6163L10.7621 96.3716L9.98304 94.9366L9.48874 93.3457L9.31692 91.6495V52.2008L8.83912 52.6439C6.7102 54.619 3.37818 54.4938 1.40314 52.3647C-0.571897 50.2356 -0.446706 46.9037 1.68257 44.9287L48.6049 1.40403C50.613 -0.458636 53.7144 -0.46916 55.735 1.3796L73.4045 17.5457V9.39141C73.4045 6.48728 75.7623 4.12963 78.6663 4.12963C81.5704 4.12963 83.9278 6.48728 83.9278 9.39141V27.1736ZM81.2903 89.5647H85.047V42.4609L52.2078 12.4162L19.8407 42.4395V89.5647H27.0797V78.1173C24.4769 76.7699 22.6963 74.0515 22.6963 70.9207V61.0196C22.6963 56.5497 26.3253 52.9209 30.7948 52.9209H33.8883C38.3578 52.9209 41.9868 56.5497 41.9868 61.0196V70.9207C41.9868 74.0515 40.2062 76.7699 37.6034 78.1173V89.5647H44.9462V71.4695C44.9462 68.5657 47.3036 66.2077 50.2077 66.2077C53.1117 66.2077 55.4695 68.5657 55.4695 71.4695V76.2577H70.7669V71.4695C70.7669 68.5657 73.1243 66.2077 76.0284 66.2077C78.9325 66.2077 81.2903 68.5657 81.2903 71.4695V89.5647ZM55.4695 89.5647H70.7669V86.7812H55.4695V89.5647ZM64.1161 60.4069H58.9967L54.6276 53.9718L50.2719 60.4069H45.1395L51.7458 51.05L45.2579 41.8118H50.4031L54.6804 48.1154L58.9178 41.8118H64.0107L57.536 51.05L64.1161 60.4069ZM32.3416 37.714C36.1908 37.714 39.3163 40.8392 39.3163 44.6885C39.3163 48.5379 36.1908 51.663 32.3416 51.663C28.4923 51.663 25.3669 48.5379 25.3669 44.6885C25.3669 40.8392 28.4923 37.714 32.3416 37.714ZM67.2684 41.8118H79.7442V45.102L72.9274 60.4069H68.2291L74.8092 45.7465H67.2684V41.8118Z" fill="#123459"/>
</svg>
