<svg width="100" height="100" viewBox="0 0 100 100" fill="none" xmlns="http://www.w3.org/2000/svg">
<path d="M49.9912 99.9824C77.6006 99.9824 99.9824 77.6006 99.9824 49.9912C99.9824 22.3818 77.6006 0 49.9912 0C22.3818 0 0 22.3818 0 49.9912C0 77.6006 22.3818 99.9824 49.9912 99.9824Z" fill="#123459"/>
<path fill-rule="evenodd" clip-rule="evenodd" d="M25.8677 60.274C25.8677 60.274 36.8807 55.389 47.5087 56.239C58.1377 57.088 62.0737 62.804 62.5697 64.57C63.0657 66.337 75.4147 55.08 77.6467 53.898C81.8417 51.677 85.8797 54.9 83.9027 58.953C83.6487 58.076 74.0167 84.345 49.9757 80.585C25.2827 76.723 22.5737 70.703 22.5737 70.703L25.8677 60.274Z" fill="#FFF5D6"/>
<path fill-rule="evenodd" clip-rule="evenodd" d="M62.9528 64.288C63.0118 64.275 63.0888 64.255 63.1548 64.23C63.3618 64.15 63.6078 64.025 63.8888 63.863C67.3788 61.846 75.6488 54.447 77.4368 53.5C79.7238 52.289 81.9678 52.593 83.3708 53.722C84.8038 54.874 85.4078 56.894 84.3078 59.15L83.7958 60.2L83.7438 60.019C81.3558 64.49 71.1928 84.359 49.9058 81.03C37.4828 79.087 30.5918 76.594 26.8048 74.594C22.8488 72.504 22.1638 70.888 22.1638 70.888L22.0928 70.731L25.4998 59.945L25.6848 59.862C25.6848 59.862 36.8098 54.932 47.5448 55.79C58.1828 56.64 62.2648 62.303 62.9528 64.288ZM83.5688 58.606C84.3508 56.869 83.9168 55.315 82.8068 54.423C81.6368 53.482 79.7648 53.286 77.8578 54.296C76.0738 55.241 67.8228 62.629 64.3388 64.642C63.9388 64.873 63.5948 65.037 63.3238 65.124C63.0748 65.204 62.8678 65.222 62.7128 65.197L62.5318 65.146L62.3548 65.038L62.2168 64.876L62.1368 64.692C61.6558 62.978 57.7898 57.512 47.4738 56.687C37.7538 55.911 27.7098 59.98 26.2348 60.605L23.0628 70.65C23.3208 71.038 24.2998 72.253 27.2248 73.798C30.9658 75.773 37.7758 78.222 50.0448 80.141C71.4018 83.481 81.2098 62.767 83.1458 59.231C83.3128 58.926 83.4388 58.731 83.5098 58.654L83.5688 58.606Z" fill="#123459"/>
<path fill-rule="evenodd" clip-rule="evenodd" d="M62.9126 63.7233C63.2626 63.5043 63.7226 63.6113 63.9426 63.9623C64.1626 64.3133 64.0626 64.7763 63.7126 64.9963C63.7126 64.9963 54.1266 70.9823 43.4546 67.5673C43.0606 67.4413 42.8426 67.0183 42.9686 66.6243C43.0946 66.2303 43.5176 66.0123 43.9116 66.1383C53.9246 69.3423 62.9126 63.7233 62.9126 63.7233Z" fill="#123459"/>
<path fill-rule="evenodd" clip-rule="evenodd" d="M75.1842 33.616C76.5868 35.051 77.4508 37.014 77.4508 39.177V45.211C77.4508 47.418 76.5508 49.416 75.0987 50.859H24.6762C23.3734 49.505 22.5732 47.665 22.5732 45.64C22.5732 41.483 25.948 38.107 30.1054 38.107L37.5181 38.127C33.4256 37.851 30.1857 34.44 30.1857 30.278C30.1857 25.936 33.7119 22.41 38.0536 22.41H68.0598C72.4016 22.41 75.9267 25.936 75.9267 30.278C75.9267 31.471 75.661 32.602 75.1842 33.616Z" fill="#FFF5D6"/>
<path fill-rule="evenodd" clip-rule="evenodd" d="M68.0598 37.145C68.6118 37.145 69.0598 37.593 69.0598 38.145C69.0598 38.697 68.6118 39.145 68.0598 39.145H38.0536C33.1599 39.145 29.1858 35.172 29.1858 30.278C29.1858 25.384 33.1599 21.41 38.0536 21.41H68.0598C72.9536 21.41 76.9267 25.384 76.9267 30.278C76.9267 31.623 76.627 32.898 76.0894 34.041C75.8556 34.54 75.2594 34.755 74.7599 34.521C74.2604 34.286 74.0452 33.69 74.28 33.191C74.695 32.306 74.9267 31.319 74.9267 30.278C74.9267 26.488 71.8496 23.41 68.0598 23.41H38.0536C34.2628 23.41 31.1857 26.488 31.1857 30.278C31.1857 34.068 34.2628 37.145 38.0536 37.145H68.0598Z" fill="#123459"/>
<path fill-rule="evenodd" clip-rule="evenodd" d="M50.9827 32.215C50.4307 32.215 49.9827 31.767 49.9827 31.215C49.9827 30.663 50.4307 30.215 50.9827 30.215H69.4897C74.4367 30.215 78.4517 34.231 78.4517 39.177V45.211C78.4517 47.695 77.4397 49.944 75.8047 51.568L75.5117 51.859H24.2507L23.9557 51.552C22.4807 50.018 21.5737 47.934 21.5737 45.64C21.5737 40.931 25.3977 37.107 30.1077 37.107L44.2697 37.145C44.8217 37.147 45.2687 37.596 45.2667 38.148C45.2657 38.7 44.8167 39.147 44.2647 39.145L30.1057 39.107C26.5007 39.108 23.5737 42.035 23.5737 45.64C23.5737 47.248 24.1557 48.72 25.1207 49.859H74.6717C75.7787 48.626 76.4517 46.996 76.4517 45.211V39.177C76.4517 35.335 73.3327 32.215 69.4897 32.215H50.9827Z" fill="#123459"/>
<path fill-rule="evenodd" clip-rule="evenodd" d="M28.6959 59.675V75.375C28.6959 77.272 27.1564 78.811 25.2603 78.811H18.3884C16.4923 78.811 14.9521 77.272 14.9521 75.375V59.675C14.9521 57.778 16.4923 56.239 18.3884 56.239H25.2603C27.1564 56.239 28.6959 57.778 28.6959 59.675Z" fill="#FFF5D6"/>
<path fill-rule="evenodd" clip-rule="evenodd" d="M29.1466 59.6751V75.3751C29.1466 77.5201 27.405 79.2611 25.2604 79.2611H18.3886C16.2441 79.2611 14.5024 77.5201 14.5024 75.3751V59.6751C14.5024 57.5301 16.2441 55.7891 18.3886 55.7891H25.2604C27.405 55.7891 29.1466 57.5301 29.1466 59.6751ZM28.2461 59.6751C28.2461 58.0271 26.9082 56.6891 25.2604 56.6891H18.3886C16.7401 56.6891 15.4028 58.0271 15.4028 59.6751V75.3751C15.4028 77.0231 16.7401 78.3611 18.3886 78.3611H25.2604C26.9082 78.3611 28.2461 77.0231 28.2461 75.3751V59.6751Z" fill="#123459"/>
</svg>
