<svg width="110" height="100" viewBox="0 0 110 100" fill="none" xmlns="http://www.w3.org/2000/svg">
<path fill-rule="evenodd" clip-rule="evenodd" d="M15.1626 93.0982C11.5013 93.0982 8.53374 90.1199 8.53374 86.4455V58.405C3.60336 56.9477 0 52.3674 0 46.9496C0 40.3601 5.33011 35.0097 11.896 35.0097C18.4612 35.0097 23.7914 40.3601 23.7914 46.9496V77.503C23.7914 79.1229 24.4328 80.6767 25.5741 81.8223C26.7155 82.9672 28.2634 83.6109 29.8775 83.6109H79.7775C81.3916 83.6109 82.9396 82.9672 84.0809 81.8223C85.2222 80.6767 85.8636 79.1229 85.8636 77.503V46.9496C85.8636 40.3601 91.1938 35.0097 97.759 35.0097C104.325 35.0097 109.655 40.3601 109.655 46.9496C109.655 52.3674 106.052 56.9477 101.121 58.405V86.4455C101.121 90.105 98.177 93.0744 94.5371 93.0982V98.4849C94.5371 98.8867 94.3779 99.2723 94.0952 99.556C93.812 99.8403 93.4279 100 93.0282 100H87.6043C86.8948 100 86.2817 99.5041 86.1299 98.8086L84.8873 93.0982H24.8118L23.5691 98.8086C23.418 99.5041 22.8043 100 22.0948 100H16.6715C15.838 100 15.1626 99.3217 15.1626 98.4849V93.0982ZM80.706 60.8289V75.6327C80.706 76.4111 80.3982 77.1579 79.8499 77.708C79.3016 78.2587 78.5575 78.568 77.7819 78.568H31.6635C30.8879 78.568 30.1438 78.2587 29.5955 77.708C29.0472 77.1579 28.7393 76.4111 28.7393 75.6327V60.8289H80.706ZM80.8181 55.7861H28.8369V46.803C28.8369 38.5101 22.8735 31.6035 15.019 30.1713V24.3071C15.019 10.8915 25.8706 0 39.2372 0H70.4178C83.7837 0 94.6353 10.8915 94.6353 24.3071V30.1713C86.7815 31.6035 80.8181 38.5101 80.8181 46.803V55.7861Z" fill="#123459"/>
</svg>
