<svg width="89" height="100" viewBox="0 0 89 100" fill="none" xmlns="http://www.w3.org/2000/svg">
<path fill-rule="evenodd" clip-rule="evenodd" d="M44.4094 100C20.9209 90.4491 3.03018 66.4559 0.344258 36.9725C-0.268424 30.2473 -0.0516611 23.6569 0.901628 17.3268C17.7567 17.0936 33.1031 10.5702 44.6974 0C56.1587 10.4493 71.2879 16.9441 87.9153 17.3163C88.8693 23.6496 89.0879 30.2434 88.4754 36.9725C85.7888 66.4559 67.8978 90.4491 44.4094 100ZM61.138 44.5487V37.0125C61.138 27.7795 53.6424 20.2836 44.4094 20.2836C35.1766 20.2836 27.6805 27.7795 27.6805 37.0125V44.5487C23.6068 44.9358 20.4157 48.3707 20.4157 52.545V68.6102C20.4157 73.0436 24.0148 76.6429 28.4482 76.6429H60.3708C64.8037 76.6429 68.4033 73.0436 68.4033 68.6102V52.545C68.4033 48.3707 65.2112 44.9358 61.138 44.5487ZM33.8214 54.6314C35.1527 54.6314 36.2337 55.7125 36.2337 57.0437C36.2337 58.3752 35.1527 59.4559 33.8214 59.4559C32.49 59.4559 31.4092 58.3752 31.4092 57.0437C31.4092 55.7125 32.49 54.6314 33.8214 54.6314ZM33.8278 44.5125V37.0125C33.8278 31.1724 38.5692 26.431 44.4094 26.431C50.2496 26.431 54.9907 31.1724 54.9907 37.0125V44.5125H33.8278ZM54.9976 54.6314C56.3295 54.6314 57.4087 55.7125 57.4087 57.0437C57.4087 58.3752 56.3295 59.4559 54.9976 59.4559C53.6661 59.4559 52.5851 58.3752 52.5851 57.0437C52.5851 55.7125 53.6661 54.6314 54.9976 54.6314ZM44.4094 61.6995C45.7408 61.6995 46.8216 62.7803 46.8216 64.1115C46.8216 65.443 45.7408 66.5238 44.4094 66.5238C43.0781 66.5238 41.9971 65.443 41.9971 64.1115C41.9971 62.7803 43.0781 61.6995 44.4094 61.6995ZM51.4681 61.6995C52.7993 61.6995 53.8797 62.7803 53.8797 64.1115C53.8797 65.443 52.7993 66.5238 51.4681 66.5238C50.1366 66.5238 49.0558 65.443 49.0558 64.1115C49.0558 62.7803 50.1366 61.6995 51.4681 61.6995ZM37.3507 61.6995C38.6821 61.6995 39.7629 62.7803 39.7629 64.1115C39.7629 65.443 38.6821 66.5238 37.3507 66.5238C36.0194 66.5238 34.9384 65.443 34.9384 64.1115C34.9384 62.7803 36.0194 61.6995 37.3507 61.6995ZM40.8801 54.6314C42.2114 54.6314 43.2924 55.7125 43.2924 57.0437C43.2924 58.3752 42.2114 59.4559 40.8801 59.4559C39.5487 59.4559 38.4679 58.3752 38.4679 57.0437C38.4679 55.7125 39.5487 54.6314 40.8801 54.6314ZM47.9388 54.6314C49.2701 54.6314 50.3509 55.7125 50.3509 57.0437C50.3509 58.3752 49.2701 59.4559 47.9388 59.4559C46.6074 59.4559 45.5266 58.3752 45.5266 57.0437C45.5266 55.7125 46.6074 54.6314 47.9388 54.6314Z" fill="#123459"/>
</svg>
