<svg width="186" height="115" viewBox="0 0 186 115" fill="none" xmlns="http://www.w3.org/2000/svg">
<path fill-rule="evenodd" clip-rule="evenodd" d="M60.1365 39.4004H59.0813C58.9745 39.4004 58.877 39.338 58.8323 39.2408L57.3755 36.0843C57.3361 35.9995 57.3429 35.9002 57.3932 35.8214C57.4439 35.7427 57.5309 35.6948 57.6245 35.6948H76.1008C76.1944 35.6948 76.2813 35.7427 76.3317 35.8214C76.3824 35.9002 76.3892 35.9995 76.3498 36.0843L74.893 39.2408C74.8483 39.338 74.7508 39.4004 74.6436 39.4004H73.5888V66.3939H74.6436C74.7508 66.3939 74.8483 66.456 74.893 66.5532L76.3498 69.7097C76.3892 69.7945 76.3824 69.8938 76.3317 69.9725C76.2813 70.0513 76.1944 70.0992 76.1008 70.0992H57.6245C57.5309 70.0992 57.4439 70.0513 57.3932 69.9725C57.3429 69.8938 57.3361 69.7945 57.3755 69.7097L58.8323 66.5532C58.877 66.456 58.9745 66.3939 59.0813 66.3939H60.1365V39.4004ZM69.4987 39.4004H68.2231V66.3939H69.4987V39.4004ZM65.5022 39.4004H64.2266V66.3939H65.5022V39.4004ZM111.328 39.4004H110.273C110.166 39.4004 110.069 39.338 110.024 39.2408L108.567 36.0843C108.528 35.9995 108.535 35.9002 108.585 35.8214C108.636 35.7427 108.723 35.6948 108.816 35.6948H127.292C127.386 35.6948 127.473 35.7427 127.524 35.8214C127.574 35.9002 127.581 35.9995 127.542 36.0843L126.085 39.2408C126.04 39.338 125.943 39.4004 125.836 39.4004H124.78V66.3939H125.836C125.943 66.3939 126.04 66.456 126.085 66.5532L127.542 69.7097C127.581 69.7945 127.574 69.8938 127.524 69.9725C127.473 70.0513 127.386 70.0992 127.292 70.0992H108.816C108.723 70.0992 108.636 70.0513 108.585 69.9725C108.535 69.8938 108.528 69.7945 108.567 69.7097L110.024 66.5532C110.069 66.456 110.166 66.3939 110.273 66.3939H111.328V39.4004ZM120.691 39.4004H119.415V66.3939H120.691V39.4004ZM116.694 39.4004H115.419V66.3939H116.694V39.4004ZM74.8171 28.7106H77.798C78.0683 28.7106 78.2879 28.9302 78.2879 29.2005V32.7887C78.2879 33.059 78.0683 33.2785 77.798 33.2785H56.383C56.1127 33.2785 55.8932 33.059 55.8932 32.7887V29.2005C55.8932 28.9302 56.1127 28.7106 56.383 28.7106H59.5889C61.8263 12.5006 75.751 0 92.5726 0C109.394 0 123.319 12.5006 125.556 28.7106H128.749C129.027 28.7106 129.252 28.9359 129.252 29.2133V32.7763C129.252 33.0537 129.027 33.2785 128.749 33.2785H107.36C107.082 33.2785 106.857 33.0537 106.857 32.7763V29.2133C106.857 28.9359 107.082 28.7106 107.36 28.7106H110.328C108.289 20.8081 101.108 14.9626 92.5726 14.9626C84.037 14.9626 76.8556 20.8081 74.8171 28.7106ZM63.3871 28.7106H66.4886C68.6633 16.2785 79.5216 6.8171 92.5726 6.8171C105.623 6.8171 116.482 16.2785 118.657 28.7106H121.758C119.551 14.582 107.316 3.7574 92.5726 3.7574C77.8289 3.7574 65.5937 14.582 63.3871 28.7106ZM78.2879 72.9326V76.5208C78.2879 76.7911 78.0683 77.0106 77.798 77.0106H56.383C56.1127 77.0106 55.8932 76.7911 55.8932 76.5208V72.9326C55.8932 72.6623 56.1127 72.4427 56.383 72.4427H77.798C78.0683 72.4427 78.2879 72.6623 78.2879 72.9326ZM106.857 72.9453C106.857 72.668 107.082 72.4427 107.36 72.4427H128.749C129.027 72.4427 129.252 72.668 129.252 72.9453V76.5084C129.252 76.7857 129.027 77.0106 128.749 77.0106H107.36C107.082 77.0106 106.857 76.7857 106.857 76.5084V72.9453ZM21.376 91.0211C22.5192 92.2016 23.4255 93.6279 24.0948 95.3003C24.7645 96.9728 25.0994 98.8786 25.0994 101.019C25.0994 102.924 24.8163 104.738 24.2502 106.46C23.6841 108.181 22.8676 109.663 21.8006 110.905C20.6794 112.196 19.362 113.202 17.8488 113.921C16.3356 114.64 14.5337 115 12.4434 115C10.7561 115 9.16099 114.686 7.65881 114.059C6.15627 113.432 4.83358 112.522 3.69036 111.33C2.55849 110.161 1.66002 108.741 0.996009 107.068C0.331999 105.396 0 103.533 0 101.48C0 99.3397 0.323841 97.4002 0.971534 95.66C1.61923 93.9202 2.50919 92.429 3.64141 91.1872C4.76299 89.9698 6.09385 89.032 7.63433 88.374C9.17482 87.7164 10.8161 87.3872 12.5577 87.3872C14.2886 87.3872 15.9135 87.7071 17.4324 88.3463C18.9509 88.9859 20.2654 89.8776 21.376 91.0211ZM17.1791 109.743C17.669 108.624 18.023 107.358 18.2408 105.943C18.4582 104.529 18.5671 102.93 18.5671 101.148C18.5671 99.6352 18.472 98.1625 18.2815 96.7298C18.0911 95.2971 17.7672 94.0216 17.3097 92.9025C16.8418 91.7834 16.2211 90.8857 15.4482 90.2096C14.6753 89.5332 13.7119 89.1951 12.5577 89.1951C10.5873 89.1951 9.0904 90.2493 8.06708 92.3584C7.04375 94.4671 6.53191 97.4463 6.53191 101.295C6.53191 102.93 6.64364 104.474 6.86675 105.925C7.08986 107.376 7.44103 108.643 7.91988 109.724C8.41008 110.819 9.03046 111.671 9.78173 112.279C10.533 112.888 11.4581 113.192 12.5577 113.192C13.6356 113.192 14.561 112.885 15.3339 112.27C16.1068 111.655 16.7219 110.813 17.1791 109.743ZM51.215 114.281H42.3314C40.7965 111.625 39.5199 109.51 38.5019 107.935C37.4839 106.361 36.2187 104.541 34.7052 102.476H33.807V110.426C33.807 110.868 33.8805 111.243 34.0277 111.551C34.1745 111.858 34.4547 112.116 34.8687 112.326C35.0755 112.424 35.3993 112.525 35.8402 112.63C36.2811 112.734 36.6596 112.805 36.9753 112.842V114.281H24.6134V112.842C24.9291 112.805 25.3455 112.753 25.8627 112.685C26.3795 112.617 26.747 112.534 26.9648 112.436C27.3783 112.239 27.6561 111.99 27.7976 111.689C27.9391 111.388 28.0101 111.004 28.0101 110.536V92.0725C28.0101 91.6298 27.9501 91.2609 27.8302 90.9658C27.7107 90.6707 27.422 90.4125 26.9648 90.1911C26.6164 90.0312 26.2053 89.896 25.7318 89.7854C25.2583 89.6747 24.8855 89.5945 24.6134 89.5456V88.1065H37.612C40.5188 88.1065 42.7261 88.6202 44.234 89.647C45.7418 90.6735 46.4956 92.2261 46.4956 94.3043C46.4956 96.1367 46.0302 97.6091 45.0995 98.7218C44.1687 99.8349 42.7506 100.705 40.8455 101.332C41.5858 102.414 42.4484 103.669 43.4338 105.095C44.4188 106.521 45.4449 107.979 46.5119 109.466C46.8492 109.946 47.3093 110.533 47.8917 111.228C48.4741 111.923 48.9885 112.35 49.435 112.51C49.6855 112.596 50.004 112.67 50.3903 112.731C50.7769 112.793 51.0518 112.83 51.215 112.842V114.281ZM40.0942 94.8208C40.0942 93.0746 39.6615 91.7987 38.796 90.9935C37.9305 90.188 36.6975 89.7854 35.0971 89.7854H33.807V100.742H35.0482C36.6486 100.742 37.8897 100.268 38.7715 99.3213C39.6533 98.3746 40.0942 96.8745 40.0942 94.8208ZM73.8207 94.7839H72.5796C72.2639 93.7879 71.7198 92.7794 70.9466 91.7589C70.1737 90.7381 69.4061 90.1358 68.6442 89.9514C68.3175 89.8652 67.8631 89.813 67.2807 89.7946C66.6982 89.7761 66.2166 89.7669 65.8353 89.7669H62.4716V99.875H64.8555C65.4543 99.875 65.9988 99.7948 66.4886 99.6352C66.9785 99.4752 67.425 99.1677 67.8276 98.7126C68.0781 98.4299 68.3313 97.9319 68.5871 97.2186C68.8428 96.5056 69.0088 95.8845 69.0851 95.3557H70.3262V106.275H69.0851C69.0198 105.759 68.8538 105.11 68.5871 104.329C68.3203 103.549 68.0671 103.011 67.8276 102.715C67.4683 102.273 67.0437 101.968 66.5539 101.802C66.064 101.636 65.4979 101.553 64.8555 101.553H62.4716V109.097C62.4716 109.884 62.523 110.509 62.6266 110.97C62.7298 111.431 62.9231 111.784 63.2062 112.03C63.4786 112.264 63.8514 112.418 64.3249 112.492C64.7984 112.565 65.4436 112.602 66.2598 112.602C66.6411 112.602 67.0984 112.596 67.6318 112.584C68.1653 112.571 68.6332 112.534 69.0361 112.473C69.4933 112.411 69.9208 112.319 70.318 112.196C70.7153 112.073 71.0122 111.895 71.208 111.662C71.7305 111.059 72.3186 110.14 72.9716 108.904C73.6249 107.668 74.0548 106.743 74.2616 106.128H75.4538L75.0129 114.281H53.2776V112.842C53.5823 112.817 53.9962 112.768 54.5187 112.694C55.0412 112.621 55.4115 112.534 55.6289 112.436C56.0429 112.239 56.3202 111.99 56.4618 111.689C56.6033 111.388 56.6742 111.004 56.6742 110.536V92.0725C56.6742 91.6298 56.6143 91.2638 56.4948 90.975C56.3749 90.686 56.0865 90.4245 55.6289 90.1911C55.3459 90.0436 54.9486 89.9081 54.4371 89.7854C53.9253 89.6623 53.539 89.5825 53.2776 89.5456V88.1065H73.8207V94.7839ZM104.394 114.281H91.771V112.842C92.3587 112.793 93.0501 112.673 93.8446 112.482C94.6395 112.291 95.0368 112.055 95.0368 111.772C95.0368 111.674 95.0286 111.563 95.0123 111.44C94.996 111.317 94.9499 111.151 94.8736 110.942L92.8976 105.519H84.8957C84.7109 106.023 84.5066 106.614 84.2835 107.29C84.0604 107.966 83.8671 108.569 83.7039 109.097C83.4968 109.786 83.3744 110.284 83.3364 110.592C83.2981 110.899 83.2793 111.114 83.2793 111.237C83.2793 111.631 83.5432 111.966 84.071 112.243C84.5992 112.519 85.4782 112.719 86.7086 112.842V114.281H77.2043V112.842C77.5636 112.817 77.9694 112.753 78.4209 112.648C78.8728 112.544 79.2293 112.399 79.4907 112.215C79.9369 111.92 80.3154 111.557 80.6254 111.127C80.9358 110.696 81.1944 110.186 81.4012 109.595C82.6643 106.14 83.9295 102.679 85.1979 99.2106C86.4664 95.743 87.8678 91.9186 89.403 87.7376H92.6691C94.8027 93.6648 96.4741 98.3501 97.6822 101.793C98.8907 105.236 99.9197 108.089 100.769 110.352C100.91 110.721 101.09 111.056 101.308 111.357C101.525 111.658 101.836 111.944 102.238 112.215C102.543 112.411 102.897 112.559 103.3 112.658C103.703 112.756 104.067 112.817 104.394 112.842V114.281ZM92.2282 103.693L88.8642 94.2121L85.5491 103.693H92.2282ZM133.696 89.5456C133.391 89.5825 132.956 89.6499 132.389 89.7485C131.823 89.8467 131.312 90.0865 130.854 90.4678C130.452 90.7998 130.166 91.3684 129.997 92.174C129.828 92.9795 129.744 94.1628 129.744 95.7246V114.428H126.837L112.401 94.1937V106.478C112.401 108.003 112.491 109.162 112.671 109.955C112.85 110.749 113.142 111.33 113.545 111.698C113.838 111.969 114.307 112.208 114.949 112.418C115.591 112.627 116.103 112.768 116.484 112.842V114.281H106.523V112.842C106.947 112.805 107.434 112.716 107.984 112.575C108.534 112.433 108.994 112.215 109.364 111.92C109.789 111.563 110.08 111.025 110.238 110.306C110.396 109.586 110.475 108.378 110.475 106.681V94.2859C110.475 93.6712 110.39 93.0902 110.221 92.5429C110.053 91.9955 109.789 91.5252 109.429 91.1318C109.048 90.7136 108.61 90.3848 108.115 90.145C107.619 89.9053 107.056 89.7176 106.425 89.5825V88.1065H115.145L127.817 105.814V95.909C127.817 94.3352 127.724 93.1639 127.54 92.3953C127.354 91.6266 127.06 91.058 126.658 90.6891C126.342 90.4061 125.874 90.1635 125.253 89.9606C124.633 89.7577 124.132 89.6194 123.751 89.5456V88.1065H133.696V89.5456ZM156.349 90.7998C157.764 91.8448 158.907 93.2377 159.778 94.9775C160.649 96.7177 161.085 98.8481 161.085 101.369C161.085 103.582 160.695 105.51 159.917 107.151C159.139 108.793 158.107 110.137 156.823 111.182C155.516 112.227 154.033 113.005 152.373 113.515C150.713 114.026 148.973 114.281 147.155 114.281H134.711V112.842C135.06 112.83 136.263 112.793 136.786 112.731C137.308 112.67 137.657 112.596 137.831 112.51C138.223 112.326 138.495 112.077 138.647 111.763C138.8 111.449 138.876 111.071 138.876 110.629V92.0725C138.876 91.6543 138.805 91.2762 138.664 90.9381C138.522 90.5998 138.244 90.3263 137.831 90.1174C137.417 89.9081 136.979 89.7669 136.516 89.6931C136.053 89.6194 135.697 89.5701 135.446 89.5456V88.1065H147.776C149.093 88.1065 150.503 88.2974 152.005 88.6787C153.508 89.0596 154.956 89.7669 156.349 90.7998ZM153.018 109.558C153.551 108.575 153.94 107.404 154.185 106.045C154.43 104.686 154.553 103.121 154.553 101.351C154.553 99.6168 154.389 98.0365 154.063 96.6099C153.736 95.1836 153.257 93.9663 152.626 92.9579C151.994 91.9494 151.208 91.1687 150.266 90.6154C149.324 90.062 148.255 89.7854 147.057 89.7854C146.676 89.7854 146.243 89.7946 145.759 89.813C145.275 89.8315 144.912 89.8467 144.673 89.8591V109.724C144.673 110.167 144.725 110.558 144.828 110.896C144.932 111.234 145.109 111.532 145.359 111.791C145.609 112.049 145.917 112.249 146.282 112.39C146.646 112.531 147.123 112.602 147.71 112.602C148.94 112.602 149.997 112.344 150.879 111.828C151.76 111.311 152.473 110.555 153.018 109.558ZM185.145 114.281H172.522V112.842C173.11 112.793 173.801 112.673 174.596 112.482C175.39 112.291 175.788 112.055 175.788 111.772C175.788 111.674 175.78 111.563 175.763 111.44C175.747 111.317 175.701 111.151 175.625 110.942L173.649 105.519H165.647C165.462 106.023 165.258 106.614 165.035 107.29C164.811 107.966 164.618 108.569 164.455 109.097C164.248 109.786 164.125 110.284 164.087 110.592C164.049 110.899 164.03 111.114 164.03 111.237C164.03 111.631 164.294 111.966 164.822 112.243C165.35 112.519 166.23 112.719 167.46 112.842V114.281H157.956V112.842C158.315 112.817 158.72 112.753 159.172 112.648C159.624 112.544 159.98 112.399 160.242 112.215C160.688 111.92 161.066 111.557 161.377 111.127C161.687 110.696 161.945 110.186 162.152 109.595C163.415 106.14 164.681 102.679 165.949 99.2106C167.217 95.743 168.619 91.9186 170.154 87.7376H173.42C175.554 93.6648 177.225 98.3501 178.434 101.793C179.642 105.236 180.671 108.089 181.52 110.352C181.661 110.721 181.841 111.056 182.059 111.357C182.276 111.658 182.587 111.944 182.989 112.215C183.294 112.411 183.648 112.559 184.051 112.658C184.454 112.756 184.819 112.817 185.145 112.842V114.281ZM172.979 103.693L169.615 94.2121L166.3 103.693H172.979Z" fill="white"/>
</svg>
